<?xml version="1.0" ?><!DOCTYPE svg  PUBLIC '-//W3C//DTD SVG 1.1//EN'  'http://www.w3.org/Graphics/SVG/1.1/DTD/svg11.dtd'><svg enable-background="new 0 0 100 100" height="100px" id="Layer_1" version="1.1" viewBox="0 0 100 100" width="100px" xml:space="preserve" xmlns="http://www.w3.org/2000/svg" xmlns:xlink="http://www.w3.org/1999/xlink"><g><radialGradient cx="-825.938" cy="-457.522" gradientTransform="matrix(0.4448 0 0 0.445 414.353 251.9014)" gradientUnits="userSpaceOnUse" id="SVGID_1_" r="83.2029"><stop offset="0.0056" style="stop-color:#FFFFFF"/><stop offset="0.1247" style="stop-color:#FBFDFE"/><stop offset="0.2488" style="stop-color:#EEF6FB"/><stop offset="0.3753" style="stop-color:#D9EAF5"/><stop offset="0.5035" style="stop-color:#BCDAED"/><stop offset="0.6329" style="stop-color:#96C6E3"/><stop offset="0.7635" style="stop-color:#68ACD7"/><stop offset="0.8924" style="stop-color:#338FC9"/><stop offset="1" style="stop-color:#0073BB"/></radialGradient><path d="M62.111,76.379c-1.113,0.438-2.27,0.793-3.451,1.098c0.002,0.093,0.014,0.184,0.014,0.276   c0,1.85-0.422,3.597-1.158,5.168c2.771-0.811,5.406-1.926,7.865-3.301C64.037,78.832,62.912,77.715,62.111,76.379z" fill="url(#SVGID_1_)"/><radialGradient cx="-825.9326" cy="-457.5112" gradientTransform="matrix(0.4448 0 0 0.445 414.353 251.9014)" gradientUnits="userSpaceOnUse" id="SVGID_2_" r="83.1993"><stop offset="0.0056" style="stop-color:#FFFFFF"/><stop offset="0.1247" style="stop-color:#FBFDFE"/><stop offset="0.2488" style="stop-color:#EEF6FB"/><stop offset="0.3753" style="stop-color:#D9EAF5"/><stop offset="0.5035" style="stop-color:#BCDAED"/><stop offset="0.6329" style="stop-color:#96C6E3"/><stop offset="0.7635" style="stop-color:#68ACD7"/><stop offset="0.8924" style="stop-color:#338FC9"/><stop offset="1" style="stop-color:#0073BB"/></radialGradient><path d="M72.656,36.29c0.584,0.64,1.135,1.305,1.65,1.995c1.541-0.702,3.248-1.104,5.051-1.104   c1.154,0,2.266,0.17,3.326,0.471c-1.027-3.371-2.539-6.536-4.461-9.421C77.324,31.512,75.332,34.335,72.656,36.29z" fill="url(#SVGID_2_)"/><radialGradient cx="-825.9326" cy="-457.5103" gradientTransform="matrix(0.4448 0 0 0.445 414.353 251.9014)" gradientUnits="userSpaceOnUse" id="SVGID_3_" r="83.1944"><stop offset="0.0056" style="stop-color:#FFFFFF"/><stop offset="0.1247" style="stop-color:#FBFDFE"/><stop offset="0.2488" style="stop-color:#EEF6FB"/><stop offset="0.3753" style="stop-color:#D9EAF5"/><stop offset="0.5035" style="stop-color:#BCDAED"/><stop offset="0.6329" style="stop-color:#96C6E3"/><stop offset="0.7635" style="stop-color:#68ACD7"/><stop offset="0.8924" style="stop-color:#338FC9"/><stop offset="1" style="stop-color:#0073BB"/></radialGradient><path d="M79.357,61.613c-0.637,0-1.256-0.063-1.865-0.156c-0.424,1.073-0.914,2.12-1.484,3.122   c0.973,0.826,1.768,1.852,2.336,3.012c1.279-1.947,2.371-4.018,3.256-6.191C80.871,61.534,80.123,61.613,79.357,61.613z" fill="url(#SVGID_3_)"/><radialGradient cx="-825.938" cy="-457.5132" gradientTransform="matrix(0.4448 0 0 0.445 414.353 251.9014)" gradientUnits="userSpaceOnUse" id="SVGID_4_" r="83.194"><stop offset="0.0056" style="stop-color:#FFFFFF"/><stop offset="0.1247" style="stop-color:#FBFDFE"/><stop offset="0.2488" style="stop-color:#EEF6FB"/><stop offset="0.3753" style="stop-color:#D9EAF5"/><stop offset="0.5035" style="stop-color:#BCDAED"/><stop offset="0.6329" style="stop-color:#96C6E3"/><stop offset="0.7635" style="stop-color:#68ACD7"/><stop offset="0.8924" style="stop-color:#338FC9"/><stop offset="1" style="stop-color:#0073BB"/></radialGradient><path d="M34.897,73.847c-0.545-0.346-1.078-0.707-1.593-1.086c-1.875,2.563-4.542,4.51-7.652,5.454   c2.954,1.944,6.209,3.486,9.683,4.554c-0.692-1.53-1.086-3.226-1.086-5.016C34.248,76.385,34.482,75.075,34.897,73.847z" fill="url(#SVGID_4_)"/><radialGradient cx="-825.9355" cy="-457.5117" gradientTransform="matrix(0.4448 0 0 0.445 414.353 251.9014)" gradientUnits="userSpaceOnUse" id="SVGID_5_" r="83.1953"><stop offset="0.0056" style="stop-color:#FFFFFF"/><stop offset="0.1247" style="stop-color:#FBFDFE"/><stop offset="0.2488" style="stop-color:#EEF6FB"/><stop offset="0.3753" style="stop-color:#D9EAF5"/><stop offset="0.5035" style="stop-color:#BCDAED"/><stop offset="0.6329" style="stop-color:#96C6E3"/><stop offset="0.7635" style="stop-color:#68ACD7"/><stop offset="0.8924" style="stop-color:#338FC9"/><stop offset="1" style="stop-color:#0073BB"/></radialGradient><path d="M45.784,27.479c1.169-0.2,2.367-0.319,3.583-0.383c-0.172-0.903-0.271-1.834-0.271-2.787   c0-4.856,2.342-9.151,5.945-11.858c-2.689-0.593-5.485-0.918-8.359-0.918c-3.55,0-6.979,0.488-10.234,1.382   C41.661,15.827,45.293,21.208,45.784,27.479z" fill="url(#SVGID_5_)"/><radialGradient cx="-825.9326" cy="-457.5127" gradientTransform="matrix(0.4448 0 0 0.445 414.353 251.9014)" gradientUnits="userSpaceOnUse" id="SVGID_6_" r="83.2044"><stop offset="0.0056" style="stop-color:#FFFFFF"/><stop offset="0.1247" style="stop-color:#FBFDFE"/><stop offset="0.2488" style="stop-color:#EEF6FB"/><stop offset="0.3753" style="stop-color:#D9EAF5"/><stop offset="0.5035" style="stop-color:#BCDAED"/><stop offset="0.6329" style="stop-color:#96C6E3"/><stop offset="0.7635" style="stop-color:#68ACD7"/><stop offset="0.8924" style="stop-color:#338FC9"/><stop offset="1" style="stop-color:#0073BB"/></radialGradient><path d="M21.34,49.181c0.588,0,1.167,0.042,1.738,0.111c0.124-0.838,0.29-1.664,0.5-2.474   c-5.594-1.233-10.216-5.025-12.606-10.084c-1.186,3.548-1.835,7.333-1.835,11.267c0,2.299,0.229,4.546,0.648,6.728   C12.503,51.349,16.667,49.181,21.34,49.181z" fill="url(#SVGID_6_)"/><radialGradient cx="-570.6235" cy="-638.2925" gradientTransform="matrix(0.3142 0 0 0.3143 251.4465 277.8848)" gradientUnits="userSpaceOnUse" id="SVGID_7_" r="48.257"><stop offset="0.0056" style="stop-color:#A9D1EF"/><stop offset="0.5393" style="stop-color:#1998D5"/><stop offset="1" style="stop-color:#0073BB"/></radialGradient><path d="M77.441,71.638c0,4.091-3.314,7.405-7.402,7.405s-7.406-3.314-7.406-7.405   c0-4.093,3.318-7.408,7.406-7.408S77.441,67.545,77.441,71.638z" fill="url(#SVGID_7_)"/><linearGradient gradientTransform="matrix(0.3134 0 0 0.3134 250.7517 277.2107)" gradientUnits="userSpaceOnUse" id="SVGID_8_" x1="-577.375" x2="-577.5739" y1="-664.9302" y2="-680.6598"><stop offset="0" style="stop-color:#1998D5"/><stop offset="0.096" style="stop-color:#209BD6"/><stop offset="0.2318" style="stop-color:#32A3DA"/><stop offset="0.3913" style="stop-color:#51B1DF"/><stop offset="0.5689" style="stop-color:#7BC4E7"/><stop offset="0.7614" style="stop-color:#B1DCF1"/><stop offset="0.9635" style="stop-color:#F2F9FD"/><stop offset="1" style="stop-color:#FFFFFF"/></linearGradient><path d="M74.318,67.919c0,1.798-2.463,1.471-4.965,1.471c-2.5,0-4.09,0.327-4.09-1.471   c0-1.8,2.027-3.26,4.525-3.26C72.293,64.659,74.318,66.119,74.318,67.919z" fill="url(#SVGID_8_)"/><radialGradient cx="-437.4805" cy="-530.5933" gradientTransform="matrix(0.415 0 0 0.4152 230.9556 305.6284)" gradientUnits="userSpaceOnUse" id="SVGID_9_" r="48.267"><stop offset="0.0056" style="stop-color:#A9D1EF"/><stop offset="0.5393" style="stop-color:#1998D5"/><stop offset="1" style="stop-color:#0073BB"/></radialGradient><path d="M56.242,77.753c0,5.404-4.381,9.78-9.783,9.78c-5.399,0-9.781-4.376-9.781-9.78   c0-5.407,4.382-9.786,9.781-9.786C51.861,67.967,56.242,72.346,56.242,77.753z" fill="url(#SVGID_9_)"/><linearGradient gradientTransform="matrix(0.414 0 0 0.414 230.7117 304.7771)" gradientUnits="userSpaceOnUse" id="SVGID_10_" x1="-445.793" x2="-445.9918" y1="-557.0273" y2="-572.7479"><stop offset="0" style="stop-color:#1998D5"/><stop offset="0.096" style="stop-color:#209BD6"/><stop offset="0.2318" style="stop-color:#32A3DA"/><stop offset="0.3913" style="stop-color:#51B1DF"/><stop offset="0.5689" style="stop-color:#7BC4E7"/><stop offset="0.7614" style="stop-color:#B1DCF1"/><stop offset="0.9635" style="stop-color:#F2F9FD"/><stop offset="1" style="stop-color:#FFFFFF"/></linearGradient><path d="M52.118,72.838c0,2.379-3.257,1.944-6.559,1.944c-3.304,0-5.404,0.435-5.404-1.944   c0-2.378,2.679-4.3,5.98-4.3C49.442,68.538,52.118,70.46,52.118,72.838z" fill="url(#SVGID_10_)"/><radialGradient cx="-438.9624" cy="-529.3135" gradientTransform="matrix(0.415 0 0 0.4152 264.4668 276.7441)" gradientUnits="userSpaceOnUse" id="SVGID_11_" r="48.261"><stop offset="0.0056" style="stop-color:#A9D1EF"/><stop offset="0.5393" style="stop-color:#1998D5"/><stop offset="1" style="stop-color:#0073BB"/></radialGradient><path d="M89.137,49.397c0,5.403-4.381,9.782-9.779,9.782c-5.4,0-9.781-4.379-9.781-9.782   c0-5.406,4.381-9.785,9.781-9.785C84.756,39.612,89.137,43.991,89.137,49.397z" fill="url(#SVGID_11_)"/><linearGradient gradientTransform="matrix(0.414 0 0 0.414 264.1404 275.9749)" gradientUnits="userSpaceOnUse" id="SVGID_12_" x1="-447.0767" x2="-447.2755" y1="-555.9395" y2="-571.6675"><stop offset="0" style="stop-color:#1998D5"/><stop offset="0.096" style="stop-color:#209BD6"/><stop offset="0.2318" style="stop-color:#32A3DA"/><stop offset="0.3913" style="stop-color:#51B1DF"/><stop offset="0.5689" style="stop-color:#7BC4E7"/><stop offset="0.7614" style="stop-color:#B1DCF1"/><stop offset="0.9635" style="stop-color:#F2F9FD"/><stop offset="1" style="stop-color:#FFFFFF"/></linearGradient><path d="M85.014,44.486c0,2.377-3.258,1.945-6.563,1.945c-3.297,0-5.398,0.432-5.398-1.945   s2.676-4.303,5.979-4.303C82.338,40.183,85.014,42.109,85.014,44.486z" fill="url(#SVGID_12_)"/><radialGradient cx="-364.4106" cy="-469.6426" gradientTransform="matrix(0.504 0 0 0.5042 208.5625 310.0044)" gradientUnits="userSpaceOnUse" id="SVGID_13_" r="48.2666"><stop offset="0.0056" style="stop-color:#A9D1EF"/><stop offset="0.5393" style="stop-color:#1998D5"/><stop offset="1" style="stop-color:#0073BB"/></radialGradient><path d="M33.218,64.018c0,6.564-5.319,11.881-11.878,11.881c-6.559,0-11.882-5.316-11.882-11.881   c0-6.566,5.323-11.88,11.882-11.88C27.898,52.138,33.218,57.451,33.218,64.018z" fill="url(#SVGID_13_)"/><linearGradient gradientTransform="matrix(0.5028 0 0 0.5028 208.5369 309.5784)" gradientUnits="userSpaceOnUse" id="SVGID_14_" x1="-373.0518" x2="-373.2506" y1="-497.0557" y2="-512.7772"><stop offset="0" style="stop-color:#1998D5"/><stop offset="0.096" style="stop-color:#209BD6"/><stop offset="0.2318" style="stop-color:#32A3DA"/><stop offset="0.3913" style="stop-color:#51B1DF"/><stop offset="0.5689" style="stop-color:#7BC4E7"/><stop offset="0.7614" style="stop-color:#B1DCF1"/><stop offset="0.9635" style="stop-color:#F2F9FD"/><stop offset="1" style="stop-color:#FFFFFF"/></linearGradient><path d="M28.209,58.052c0,2.886-3.955,2.361-7.967,2.361s-6.559,0.524-6.559-2.361s3.25-5.225,7.259-5.225   C24.958,52.827,28.209,55.166,28.209,58.052z" fill="url(#SVGID_14_)"/><radialGradient cx="-365.9932" cy="-468.1665" gradientTransform="matrix(0.504 0 0 0.5042 251.9526 269.5493)" gradientUnits="userSpaceOnUse" id="SVGID_15_" r="48.2658"><stop offset="0.0056" style="stop-color:#A9D1EF"/><stop offset="0.5393" style="stop-color:#1998D5"/><stop offset="1" style="stop-color:#0073BB"/></radialGradient><path d="M75.811,24.31c0,6.562-5.32,11.878-11.881,11.878c-6.559,0-11.879-5.317-11.879-11.878   c0-6.567,5.32-11.884,11.879-11.884C70.49,12.426,75.811,17.743,75.811,24.31z" fill="url(#SVGID_15_)"/><linearGradient gradientTransform="matrix(0.5028 0 0 0.5028 251.8196 269.239)" gradientUnits="userSpaceOnUse" id="SVGID_16_" x1="-374.4282" x2="-374.6271" y1="-495.8013" y2="-511.5254"><stop offset="0" style="stop-color:#1998D5"/><stop offset="0.096" style="stop-color:#209BD6"/><stop offset="0.2318" style="stop-color:#32A3DA"/><stop offset="0.3913" style="stop-color:#51B1DF"/><stop offset="0.5689" style="stop-color:#7BC4E7"/><stop offset="0.7614" style="stop-color:#B1DCF1"/><stop offset="0.9635" style="stop-color:#F2F9FD"/><stop offset="1" style="stop-color:#FFFFFF"/></linearGradient><path d="M70.801,18.343c0,2.886-3.955,2.361-7.965,2.361c-4.012,0-6.563,0.525-6.563-2.361   c0-2.886,3.25-5.225,7.262-5.225C67.551,13.118,70.801,15.458,70.801,18.343z" fill="url(#SVGID_16_)"/><radialGradient cx="-301.0869" cy="-416.6187" gradientTransform="matrix(0.6227 0 0 0.623 219.4116 299.8237)" gradientUnits="userSpaceOnUse" id="SVGID_17_" r="48.2632"><stop offset="0.0056" style="stop-color:#A9D1EF"/><stop offset="0.5393" style="stop-color:#1998D5"/><stop offset="1" style="stop-color:#0073BB"/></radialGradient><path d="M42.21,28.927c0,8.108-6.575,14.674-14.679,14.674c-8.103,0-14.675-6.566-14.675-14.674   c0-8.114,6.573-14.684,14.675-14.684C35.635,14.243,42.21,20.813,42.21,28.927z" fill="url(#SVGID_17_)"/><linearGradient gradientTransform="matrix(0.6212 0 0 0.6212 219.3057 298.9292)" gradientUnits="userSpaceOnUse" id="SVGID_18_" x1="-309.457" x2="-309.6559" y1="-443.3335" y2="-459.0601"><stop offset="0" style="stop-color:#1998D5"/><stop offset="0.096" style="stop-color:#209BD6"/><stop offset="0.2318" style="stop-color:#32A3DA"/><stop offset="0.3913" style="stop-color:#51B1DF"/><stop offset="0.5689" style="stop-color:#7BC4E7"/><stop offset="0.7614" style="stop-color:#B1DCF1"/><stop offset="0.9635" style="stop-color:#F2F9FD"/><stop offset="1" style="stop-color:#FFFFFF"/></linearGradient><path d="M36.021,21.554c0,3.564-4.888,2.918-9.845,2.918c-4.956,0-8.105,0.646-8.105-2.918   s4.015-6.456,8.973-6.456C32.004,15.098,36.021,17.989,36.021,21.554z" fill="url(#SVGID_18_)"/><radialGradient cx="-513.5869" cy="-590.8921" gradientTransform="matrix(0.3507 0 0 0.3508 232.4514 266.884)" gradientUnits="userSpaceOnUse" id="SVGID_19_" r="48.264"><stop offset="0.0056" style="stop-color:#F5D6AF"/><stop offset="0.5393" style="stop-color:#EE8031"/><stop offset="1" style="stop-color:#EF8631"/></radialGradient><path d="M57.676,52.767c0,4.566-3.703,8.264-8.267,8.264c-4.561,0-8.262-3.697-8.262-8.264   c0-4.567,3.701-8.264,8.262-8.264C53.973,44.502,57.676,48.199,57.676,52.767z" fill="url(#SVGID_19_)"/><linearGradient gradientTransform="matrix(0.3498 0 0 0.3498 231.7241 266.2744)" gradientUnits="userSpaceOnUse" id="SVGID_20_" x1="-521.9219" x2="-522.1207" y1="-617.772" y2="-633.4944"><stop offset="0" style="stop-color:#F29E40"/><stop offset="0.1085" style="stop-color:#F2A147"/><stop offset="0.2619" style="stop-color:#F4AB59"/><stop offset="0.4421" style="stop-color:#F6BA77"/><stop offset="0.6427" style="stop-color:#F9D0A2"/><stop offset="0.8574" style="stop-color:#FCEBD7"/><stop offset="1" style="stop-color:#FFFFFF"/></linearGradient><path d="M54.189,48.619c0,2.006-2.75,1.641-5.542,1.641c-2.79,0-4.564,0.365-4.564-1.641   c0-2.01,2.263-3.635,5.051-3.635C51.926,44.983,54.189,46.609,54.189,48.619z" fill="url(#SVGID_20_)"/></g></svg>